<?xml version="1.0" encoding="UTF-8"?>
<svg width="24px" height="24px" viewBox="0 0 24 24" version="1.1" xmlns="http://www.w3.org/2000/svg" xmlns:xlink="http://www.w3.org/1999/xlink">
    <title>Icon / directional / arrow-left</title>
    <defs>
        <path d="M15.2076119,2.7971067 L23.6622916,11.2507383 C23.8694125,11.4339558 24,11.7017277 24,12 C24,12.2804721 23.8845337,12.5339757 23.6985438,12.715568 C23.6973077,12.7168859 23.6951067,12.7191072 23.6928932,12.7213207 L15.2076119,21.2066021 C14.8170876,21.5971264 14.1839226,21.5971264 13.7933983,21.2066021 C13.402874,20.8160778 13.402874,20.1829128 13.7933983,19.7923885 L20.585,12.9992135 L1,13 C0.44771525,13 6.76353751e-17,12.5522847 0,12 C-6.76353751e-17,11.4477153 0.44771525,11 1,11 L20.581,10.9992135 L13.7933983,4.21132026 C13.402874,3.82079597 13.402874,3.18763099 13.7933983,2.7971067 C14.1839226,2.4065824 14.8170876,2.4065824 15.2076119,2.7971067 Z" id="path-1"></path>
    </defs>
    <g id="Icon-/-directional-/-arrow-left" stroke="none" stroke-width="1" fill="none" fill-rule="evenodd">
        <mask id="mask-2" fill="white">
            <use xlink:href="#path-1"></use>
        </mask>
        <use id="Mask" fill="#FD7D58" transform="translate(12.000000, 12.001854) rotate(-180.000000) translate(-12.000000, -12.001854) " xlink:href="#path-1"></use>
    </g>
</svg>