<?xml version="1.0" encoding="UTF-8"?>
<svg width="24px" height="24px" viewBox="0 0 24 24" version="1.1" xmlns="http://www.w3.org/2000/svg" xmlns:xlink="http://www.w3.org/1999/xlink">
    <title>Icon / download</title>
    <g id="Icon-/-download" stroke="none" stroke-width="1" fill="none" fill-rule="evenodd">
        <path d="M18.8359375,22 L5.1640625,22 C3.41927083,22 2,20.640625 2,18.9713542 L2,17 C2,16.3098958 2.55989583,15.75 3.25,15.75 C3.94010417,15.75 4.5,16.3098958 4.5,17 L4.5,18.9713542 C4.5,19.2578125 4.8046875,19.5 5.1640625,19.5 L18.8359375,19.5 C19.1953125,19.5 19.5,19.2578125 19.5,18.9713542 L19.5,17 C19.5,16.3098958 20.0598958,15.75 20.75,15.75 C21.4401042,15.75 22,16.3098958 22,17 L22,18.9713542 C22,20.640625 20.5807292,22 18.8359375,22 Z" id="形状" fill="#000000" fill-rule="nonzero"></path>
        <path d="M12,2 C12.6901042,2 13.25,2.55989583 13.25,3.25 L13.25,3.25 L13.2493542,12.27 L14.1458333,11.375 C14.3534226,11.1651786 14.6184099,11.0452806 14.8915968,11.0153061 L15.0286458,11.0078125 C15.3463542,11.0078125 15.6666667,11.1302083 15.9140625,11.375 C16.4036458,11.8645833 16.4036458,12.6536458 15.9140625,13.1432292 L15.9140625,13.1432292 L12.8854167,16.171875 C12.3958333,16.6614583 11.6067708,16.6614583 11.1171875,16.171875 L11.1171875,16.171875 L8.08854167,13.1432292 C7.59895833,12.6536458 7.59895833,11.8645833 8.08854167,11.375 C8.578125,10.8854167 9.3671875,10.8854167 9.85677083,11.375 L9.85677083,11.375 L10.7493542,12.268 L10.75,3.25 C10.75,2.60302734 11.2420959,2.07049561 11.8722363,2.00645638 Z" id="形状结合" fill="#2196F3"></path>
    </g>
</svg>