<?xml version="1.0" encoding="UTF-8"?>
<svg width="24px" height="24px" viewBox="0 0 24 24" version="1.1" xmlns="http://www.w3.org/2000/svg" xmlns:xlink="http://www.w3.org/1999/xlink">
    <title>Icon / identification-bothway</title>
    <g id="Icon-/-identification-bothway" stroke="none" stroke-width="1" fill="none" fill-rule="evenodd">
        <path d="M12.0003384,24 C11.623645,24 11.2561839,23.8816306 10.9487569,23.6605906 L6.29758532,20.3138634 C3.51345542,18.0957601 2,14.9590778 2,11.4554698 L2,5.10208421 C2,4.74547922 2.20226474,4.4207632 2.51959127,4.26797952 L10.9847084,0.192403768 C11.0164518,0.177094098 11.049058,0.163701858 11.0823568,0.152297023 C11.6727412,-0.0507656744 12.323929,-0.0507656744 12.9143133,0.152297023 C12.9476118,0.163567606 12.98045,0.177092273 13.0119617,0.192403768 L21.4801922,4.26797952 C21.7976122,4.4206893 22,4.74542505 22,5.10208421 L22,11.4554698 C22,14.9595177 20.4863009,18.0957601 17.7381496,20.286814 L13.0510536,23.6605906 C12.7372089,23.8868816 12.3687872,24 12.0003384,24 Z M4,5.782059 L4,11.4638339 C4,14.344232 5.23852507,16.9250038 7.48724125,18.7307481 L11.9998941,22 L16.5476997,18.7041369 C18.7617132,16.925464 20,14.3446922 20,11.4638609 L20,5.782059 L12.2820425,2.04095244 C12.09757,1.98613283 11.8983535,1.98656598 11.7147546,2.04095244 L4,5.782059 Z" id="形状" fill="#212121" fill-rule="nonzero"></path>
        <path d="M16,11.9741517 C16.5522847,11.9741517 17,12.4218669 17,12.9741517 C17,13.5264364 16.5522847,13.9741517 16,13.9741517 L10.7328382,13.9736571 L11.7048269,14.7895241 C12.1279015,15.1445259 12.1830855,15.7752815 11.8280837,16.1983561 C11.4730819,16.6214308 10.8423263,16.6766148 10.4192517,16.321613 L7.35507389,13.7504625 C7.08637559,13.5249979 6.96607069,13.1883044 7.00499433,12.864228 L7,12.9741517 C7,12.9248405 7.00356916,12.876363 7.01046323,12.8289634 C7.013261,12.8072484 7.01739699,12.7855168 7.02226405,12.7639014 C7.1188558,12.3124513 7.51992085,11.9741517 8,11.9741517 L16,11.9741517 Z M13.5761732,5.66863594 L16.5639668,8.17408657 C16.8272382,8.35420558 17,8.65692745 17,9 C17,9.11834673 16.9794416,9.2318918 16.9417014,9.33725878 L16.8984832,9.44036697 C16.8631306,9.51352609 16.8182234,9.58353002 16.7636078,9.64861843 C16.5421109,9.91258809 16.2132657,10.0333413 15.8944939,10.0006051 L8,10 C7.44771525,10 7,9.55228475 7,9 C7,8.44771525 7.44771525,8 8,8 L13.2418382,7.9996571 L12.2905979,7.20072483 C11.8675233,6.84572303 11.8123393,6.21496744 12.1673411,5.79189277 C12.5223429,5.36881811 13.1530985,5.31363415 13.5761732,5.66863594 Z" id="形状结合" fill="#2196F3"></path>
    </g>
</svg>