<?xml version="1.0" encoding="UTF-8"?>
<svg width="24px" height="24px" viewBox="0 0 24 24" version="1.1" xmlns="http://www.w3.org/2000/svg" xmlns:xlink="http://www.w3.org/1999/xlink">
    <title>Icon / identification-check</title>
    <g id="Icon-/-identification-check" stroke="none" stroke-width="1" fill="none" fill-rule="evenodd">
        <path d="M12.0003384,24 C11.623645,24 11.2561839,23.8816306 10.9487569,23.6605906 L6.29758532,20.3138634 C3.51345542,18.0957601 2,14.9590778 2,11.4554698 L2,5.10208421 C2,4.74547922 2.20226474,4.4207632 2.51959127,4.26797952 L10.9847084,0.192403768 C11.0164518,0.177094098 11.049058,0.163701858 11.0823568,0.152297023 C11.6727412,-0.0507656744 12.323929,-0.0507656744 12.9143133,0.152297023 C12.9476118,0.163567606 12.98045,0.177092273 13.0119617,0.192403768 L21.4801922,4.26797952 C21.7976122,4.4206893 22,4.74542505 22,5.10208421 L22,11.4554698 C22,14.9595177 20.4863009,18.0957601 17.7381496,20.286814 L13.0510536,23.6605906 C12.7372089,23.8868816 12.3687872,24 12.0003384,24 Z M4,5.782059 L4,11.4638339 C4,14.344232 5.23852507,16.9250038 7.48724125,18.7307481 L11.9998941,22 L16.5476997,18.7041369 C18.7617132,16.925464 20,14.3446922 20,11.4638609 L20,5.782059 L12.2820425,2.04095244 C12.09757,1.98613283 11.8983535,1.98656598 11.7147546,2.04095244 L4,5.782059 Z" id="形状" fill="#212121" fill-rule="nonzero"></path>
        <path d="M9.96889235,15.3135598 L6,11.0464552 L7.78454169,9.51251006 L10.7299607,12.6792681 L16.2883945,7.21360701 L18,8.82216212 L11.3672828,15.3435463 C10.979934,15.7243807 10.3381924,15.7106483 9.96889235,15.3135598 Z" id="路径" fill="#00D8A0" fill-rule="nonzero"></path>
    </g>
</svg>