<?xml version="1.0" encoding="UTF-8"?>
<svg width="24px" height="24px" viewBox="0 0 24 24" version="1.1" xmlns="http://www.w3.org/2000/svg" xmlns:xlink="http://www.w3.org/1999/xlink">
    <title>Icon / pdf</title>
    <defs>
        <path d="M14.1745191,-1.38555833e-13 L14.1745191,2.51158328 C17.0890564,2.52830706 20.0065401,2.48087731 22.918131,2.52556546 C23.5451811,2.46415353 24.0361605,2.96422207 23.9732144,3.60548321 C24.0195535,8.81864291 23.9622324,14.03427 24,19.2501714 C23.9732144,19.8138451 24.0535711,20.4389308 23.738305,20.938451 C23.3402715,21.2339959 22.8222387,21.1950651 22.3561699,21.2175463 C19.6296672,21.2035641 16.9031646,21.2090473 14.1739834,21.2090473 L14.1739834,24 L12.4784572,24 C8.32214106,23.2241261 4.15993214,22.5154215 0.00200891736,21.767512 C-0.00066963912,15.2567512 -0.00066963912,8.74699566 0.00200891736,2.23824537 C4.20921758,1.49307745 8.41615839,0.733927347 12.6287242,-1.38555833e-13 L14.1745191,-1.38555833e-13 Z M23.0809873,3.34886909 L14.0837161,3.34886909 L14.0837161,13.2710075 C14.3357682,13.1972584 14.5096065,13.1599726 14.5096065,13.1599726 C14.6606771,12.9987663 14.6435344,13.0138451 14.8248726,12.8145305 C15.4006049,12.177401 15.9368279,11.5040272 16.4303994,10.798355 C16.425578,10.7336532 16.2522754,8.30020562 17.0046819,7.97642221 C17.1035064,7.93475128 17.2127752,7.92658421 17.3164659,7.95311857 C17.4538758,7.98656614 17.5843215,8.07758739 17.6512854,8.1847841 C17.8211059,8.46086361 17.8178916,8.86387937 17.678071,9.42810144 C17.4562865,10.3210418 17.1182527,10.8183687 17.1182527,10.8183687 C17.1182527,10.8183687 17.2253949,11.9199452 18.2432464,13.1429746 C18.7106545,13.1835504 19.1127058,13.2441398 19.438954,13.3236463 C19.9998438,13.4607265 20.333324,13.6504455 20.4584126,13.9045922 C20.5291265,14.0482522 20.5387693,14.2253598 20.4541269,14.43427 C20.3694845,14.6431803 20.2835029,14.7468129 20.127343,14.8082248 C19.9966295,14.859767 19.8327018,14.8630569 19.6417207,14.815353 C19.0706525,14.6760795 18.3134246,14.1198081 17.8203023,13.67183 C17.0226282,13.6076765 16.0545979,13.6005483 14.9413898,13.6498972 C14.6104988,14.0137994 14.3241611,14.3048663 14.0823768,14.523098 L14.0823768,20.3723098 L23.0809873,20.3723098 L23.0809873,3.34886909 Z M19.0243135,13.8371487 C19.3569902,14.0912954 19.6403815,14.2483893 19.8734159,14.3032214 C20.0129687,14.3388622 20.0978789,14.3251542 20.1431465,14.3089788 C20.1175151,14.2806753 20.0893573,14.2548836 20.0590398,14.2319397 C19.9342191,14.1354352 19.6800241,13.9945168 19.1788662,13.8725154 C19.129045,13.8602696 19.0775275,13.8484807 19.0243135,13.8371487 Z M16.5988806,11.6504455 C16.2283956,12.1751258 15.8247679,12.674433 15.3905838,13.1451679 C15.8456705,13.099109 16.5672736,13.0727896 17.3078945,13.0919808 C17.0071444,12.6475957 16.7685016,12.1623979 16.5988806,11.6504455 Z M2.26404987,9.66470185 L1.26441259,9.66470185 L1.26441259,13.0755312 L1.88717697,13.0755312 L1.88717697,11.7888965 L2.29217471,11.7888965 C2.57395885,11.7888965 2.78931479,11.7725383 2.93824253,11.7398218 C3.05610446,11.7098803 3.16651787,11.6549619 3.26234787,11.5786155 C3.37451791,11.4892437 3.46431003,11.3738448 3.52431069,11.2419465 C3.59306031,11.0993831 3.62743511,10.9234636 3.62743511,10.7141878 C3.62725654,10.442769 3.56761402,10.2213388 3.44850754,10.0498972 C3.32940106,9.87845556 3.18145546,9.76714645 3.00467073,9.71596984 C2.88984995,9.68179118 2.64297632,9.66470185 2.26404987,9.66470185 L2.26404987,9.66470185 Z M5.27528306,9.66470185 L4.1366287,9.66470185 L4.1366287,13.0752581 L5.30876502,13.0752581 C5.53876373,13.0754398 5.72260199,13.0514051 5.8602798,13.0031528 C6.04474305,12.9380854 6.19054581,12.8473384 6.29768807,12.7309116 C6.44090156,12.5770162 6.55107951,12.3759653 6.62822194,12.1277587 C6.69143587,11.9246973 6.72304284,11.6827964 6.72304284,11.4020562 C6.72286427,11.082568 6.68911446,10.8137994 6.62179341,10.5957505 C6.56244505,10.3925253 6.46206553,10.2043202 6.32715219,10.0433173 C6.20345679,9.89697593 6.04261285,9.78851948 5.86242264,9.72995202 C5.72760197,9.68645191 5.53188877,9.66470185 5.27528306,9.66470185 L5.27528306,9.66470185 Z M9.3697245,9.66470185 L7.25500416,9.66470185 L7.25500416,13.0755312 L7.87776854,13.0755312 L7.87776854,11.6235778 L9.1656185,11.6235778 L9.1656185,11.047841 L7.87776854,11.047841 L7.87776854,10.2404387 L9.3697245,10.2404387 L9.3697245,9.66470185 Z M4.75966094,10.2404387 L5.03930224,10.2423578 C5.29305082,10.2423578 5.4634963,10.2532328 5.55063867,10.2749829 C5.65990595,10.2988282 5.7600963,10.3545301 5.8391192,10.4353667 C5.91447592,10.513411 5.97331488,10.6230752 6.01563607,10.7643592 C6.05795727,10.9056431 6.07911786,11.1081563 6.07911786,11.3718986 C6.07876072,11.6356408 6.05760012,11.84382 6.01563607,11.9964359 C5.97367202,12.1490519 5.91938661,12.258716 5.85277984,12.3254284 C5.78243734,12.3942078 5.69586974,12.443139 5.60153124,12.4674435 C5.52421024,12.4890107 5.39858595,12.4997944 5.22465834,12.4997944 L5.22465834,12.4997944 L4.75966094,12.4997944 L4.75966094,10.2404387 Z M2.18824672,10.2418095 C2.41235261,10.2418095 2.56172678,10.2495773 2.63636922,10.2651131 C2.73462399,10.2836861 2.8232655,10.3373069 2.88654639,10.4164496 C2.95466846,10.5032265 2.98986461,10.6122739 2.98565298,10.7235093 C2.98755201,10.8169734 2.963094,10.9090175 2.91520695,10.9886223 C2.86897774,11.0639017 2.80088271,11.1224785 2.72047589,11.1561343 C2.63779778,11.1917752 2.47369155,11.2095956 2.22815721,11.2095956 L2.22815721,11.2095956 L1.88717697,11.2095956 L1.88717697,10.2415353 Z M17.3068231,8.429061 L17.3052159,8.43098012 C17.1793238,8.60918437 17.0202175,9.34091844 17.0729851,9.78231666 C17.1728952,9.60027416 17.2045022,9.47854695 17.2915553,9.16600411 C17.3566442,8.93241947 17.4011083,8.51322824 17.3068231,8.429061 Z" id="path-1"></path>
    </defs>
    <g id="Icon-/-pdf" stroke="none" stroke-width="1" fill="none" fill-rule="evenodd">
        <mask id="mask-2" fill="white">
            <use xlink:href="#path-1"></use>
        </mask>
        <use id="形状结合" fill="red" fill-rule="nonzero" xlink:href="#path-1"></use>
    </g>
</svg>